# xmcd
#
# Track frame offsets:
#	150
#	16449
#	31373
#	49321
#	61529
#	84423
#	95616
#	116737
#	125212
#	137179
#	162032
#	178205
#	201433
#
# Disc length: 2856 seconds
#
# Revision: 1
# Processed by: cddbd v1.5.2PL0 Copyright (c) Steve Scherf et al.
# Submitted via: audiograbber 1.83.01
#
DISCID=b90b260d
DTITLE=Various Artist - Schrammel.Klang.Festival 2009 CD1
DYEAR=2009
DGENRE=Schrammel
TTITLE0=Ernst Molden feat. Willi Resetarits - Hammerschmidgossn
TTITLE1=Agnes Palmisano and Viennart - Schintagruab´n
TTITLE2=5/8erl in Ehr´n - Harte Männer tanzen nicht
TTITLE3=Patrola Staroprazska - Ku Praze uhani vlak
TTITLE4=Wiener Art Schrammeln - Beim Grebelten
TTITLE5=Wiener Facetten - Geborn für die Gruabn
TTITLE6=BoABoA - Du lässt dich geh´n/Heast reiß di zsamm
TTITLE7=16-er Buam - Ruaßlungan, Pözzungan
TTITLE8=Cremser Selection - Die neiche Reblaus
TTITLE9=attensam quartett - Ottakringer Tänze
TTITLE10=Wolfgang Puschnig - over and over
TTITLE11=Neue Wiener Concert Schrammeln - Wean in der Sunn
TTITLE12=Inzersdorfer unkonserviert and Walter Czipke - Der Lemonimann
EXTD=
EXTT0=
EXTT1=
EXTT2=
EXTT3=
EXTT4=
EXTT5=
EXTT6=
EXTT7=
EXTT8=
EXTT9=
EXTT10=
EXTT11=
EXTT12=
PLAYORDER=
